<?xml version="1.0" encoding="utf-8"?>
<!-- Generator: Adobe Illustrator 25.1.0, SVG Export Plug-In . SVG Version: 6.00 Build 0)  -->
<svg version="1.1" id="Layer_1" xmlns="http://www.w3.org/2000/svg" xmlns:xlink="http://www.w3.org/1999/xlink" x="0px" y="0px"
	 viewBox="0 0 512 130" style="enable-background:new 0 0 512 130;" xml:space="preserve">
<style type="text/css">
	.st0{fill:#45AD47;}
	.st1{fill:#FFFFFF;}
</style>
<g>
	<path class="st0" d="M80.1,23.7V0.2H56.7l-2.3,2.4L43.3,23.7L39.8,26H0.4v32.2h21.7l1.9,2.3L0.4,105.6v23.4h23.4l2.3-2.4l11.1-21.1
		l3.5-2.3h39.4V71.1H58.4l-1.9-2.4L80.1,23.7"/>
	<path class="st1" d="M125.9,106.7l6.7-12.7l3.1,12.7H125.9L125.9,106.7z M126.5,71.1l-30.3,57.9h18l4.4-8.4l20.3,0l2,8.4h18
		l-13.9-57.9H126.5z M187.2,98.2h-7.7V86.5h7.7c4.7,0,6.5,2.3,6.5,5.9C193.7,95.9,191.9,98.2,187.2,98.2z M211.3,92.1
		c0-13.3-9-21-21.6-21h-27.4v57.9h17.3v-16.9h4.2l3.4,0l8.4,16.9h18l-10.7-20.4C208.1,105.3,211.3,99.6,211.3,92.1z M213.9,71.1
		v15.4h16.4v42.6h9.9l7.4-14.3V86.5h14.9l8-15.4H213.9z M310.9,0.2h17.3v57.9h-17.3V0.2z M163.7,0.3l-7.8,14.9h4.8
		c8.5,0,13.9,5.5,13.9,14.1c0,8.5-5.4,14-13.9,14h-5.4V16.3l-16.7,32v9.9h23.3c18.8,0,29.8-11.3,29.8-29
		C191.7,12.1,181.3,1,163.7,0.3z M196.2,58.2h44.2V42.8h-26.9v-6.3h24.7V21.9h-24.7v-6.3h26.9V0.2h-44.2V58.2z M271.2,35.3
		l-8.4-35.1h-18l13.9,57.9h18.5l30.3-57.9h-18L271.2,35.3z M455.1,0.2v15.4h16.4v42.6h9.9l7.4-14.3V15.6h14.9l8-15.4H455.1z
		 M361.3,35.8l6.6-12.7l3.1,12.7H361.3z M362,0.2l-30.3,57.9h18l4.4-8.4l20.3,0l2,8.4l18,0L380.4,0.2H362z M434,27.7L414.7,0.2
		h-17.1v57.9h17.3V28.8l21.5,29.4h15V0.2H434V27.7z"/>
</g>
</svg>
