<svg xmlns="http://www.w3.org/2000/svg" viewBox="0 0 31.64 64"><defs><style>.cls-1{fill:#b2adad;}.cls-2{fill:#d43132;}.cls-3{fill:#fff;opacity:0.4;}</style></defs><g id="Layer_8" data-name="Layer 8"><path class="cls-1" d="M35,39.31c-1.83,2.44-1,21-1,21a31.66,31.66,0,0,0,7.09,1.22c4,.23,3.36,2.44,3.36,2.44H19.14s-.61-2.21,3.35-2.44a31.68,31.68,0,0,0,7.1-1.22s.83-18.59-1-21S17.92,35.66,16.4,26.51,17.92,4.24,19.14,0H44.46c1.22,4.24,4.26,17.37,2.74,26.51S36.84,36.88,35,39.31ZM17.07,16c-2.43,16.7,10.5,21.92,14.55,21.58C46.56,36.34,47,19.52,46.55,16.38s-3-15.65-3-15.65h-24S18.88,3.54,17.07,16Z" transform="translate(-15.98 0)"/></g><g id="Layer_7" data-name="Layer 7"><path class="cls-2" d="M17.07,16.38s-1.5,11.05,2.2,15.28c5.69,6.5,12,5.92,12.35,5.92a14.5,14.5,0,0,0,5.3-1.28c3.77-1.72,8.23-5.2,9.37-9.39a27.16,27.16,0,0,0,.26-10.53Z" transform="translate(-15.98 0)"/></g><g id="Layer_9" data-name="Layer 9"><path class="cls-3" d="M21.39,2.64s-3.81,16.78-2.9,21.88a17.83,17.83,0,0,0,5.23,9.25s-3.41-5.81-3.5-9.35C20,16.63,25,2.64,25,2.64Z" transform="translate(-15.98 0)"/></g></svg>