<svg xmlns="http://www.w3.org/2000/svg" viewBox="0 0 56 56"><defs><style>.cls-1{fill:#fff;}</style></defs><g id="Layer_3" data-name="Layer 3"><path class="cls-1" d="M32,5.94A25.22,25.22,0,1,1,6.78,31.16,25.24,25.24,0,0,1,32,5.94m0-2.78a28,28,0,1,0,28,28,28,28,0,0,0-28-28Z" transform="translate(-4 -3.16)"/><path class="cls-1" d="M31.81,17.36a7.4,7.4,0,1,1-7.4,7.4,7.41,7.41,0,0,1,7.4-7.4m0-.81A8.22,8.22,0,1,0,40,24.76a8.21,8.21,0,0,0-8.22-8.21Z" transform="translate(-4 -3.16)"/><path class="cls-1" d="M39.23,28.2a7.9,7.9,0,1,1-7.9,7.89,7.9,7.9,0,0,1,7.9-7.89m0-.88A8.77,8.77,0,1,0,48,36.09a8.77,8.77,0,0,0-8.77-8.77Z" transform="translate(-4 -3.16)"/><path class="cls-1" d="M24.9,28.2A7.9,7.9,0,1,1,17,36.09a7.91,7.91,0,0,1,7.9-7.89m0-.88a8.77,8.77,0,1,0,8.77,8.77,8.77,8.77,0,0,0-8.77-8.77Z" transform="translate(-4 -3.16)"/></g></svg>