<svg id="Layer_1" data-name="Layer 1" xmlns="http://www.w3.org/2000/svg" viewBox="0 0 71.73 71.73"><defs><style>.cls-1{fill:#117bb8;}.cls-2{fill:#fff;}</style></defs><path class="cls-1" d="M35.86,71.73h0A35.87,35.87,0,0,1,0,35.86H0A35.87,35.87,0,0,1,35.86,0h0A35.87,35.87,0,0,1,71.73,35.86h0A35.87,35.87,0,0,1,35.86,71.73Z"/><rect class="cls-2" x="19.6" y="27.87" width="7.42" height="23.98"/><path class="cls-2" d="M23.28,24.73a4.43,4.43,0,1,0-4.39-4.43A4.41,4.41,0,0,0,23.28,24.73Z"/><path class="cls-2" d="M38.89,39.26c0-3.37,1.55-5.38,4.52-5.38,2.73,0,4,1.93,4,5.38V51.85h7.39V36.67c0-6.43-3.64-9.53-8.73-9.53a8.36,8.36,0,0,0-7.22,4V27.87H31.77v24h7.12Z"/></svg>